<svg  viewBox="0 0 52 52" fill="none" xmlns="http://www.w3.org/2000/svg">
<path d="M12.0791 4.49367C12.3549 4.62631 12.5877 4.83415 12.7506 5.09327C12.9135 5.3524 13 5.65226 12.9999 5.95834C12.9999 7.75667 13.6759 8.79234 14.5231 10.0533L14.5859 10.1443C15.3053 11.2147 16.2499 12.6165 16.2499 14.625C16.2499 16.6747 15.2164 18.4817 13.6413 19.5542C14.0551 19.9008 14.4213 20.3277 14.7376 20.839C15.7689 22.5073 16.2499 25.0575 16.2499 28.7192C16.2499 32.4285 15.7516 36.8832 14.9391 40.4408C14.5361 42.2088 14.0356 43.8403 13.4398 45.0645C13.1429 45.6733 12.7811 46.267 12.3348 46.7328C11.8884 47.19 11.2016 47.6775 10.2916 47.6775C9.38159 47.6775 8.69475 47.19 8.25059 46.7328C7.79821 46.2372 7.42544 45.6744 7.14559 45.0645C6.54759 43.8382 6.04709 42.2088 5.64409 40.4387C4.79897 36.588 4.35963 32.6593 4.33325 28.717C4.33325 25.0553 4.81425 22.5073 5.84559 20.839C6.13981 20.3547 6.50998 19.9209 6.94192 19.5542C6.1376 19.0081 5.47928 18.2733 5.02453 17.414C4.56978 16.5548 4.33244 15.5972 4.33325 14.625C4.33325 13.8277 4.33325 12.4562 5.16309 10.686C5.97559 8.95267 7.52042 6.96151 10.3588 4.68867C10.598 4.49732 10.8864 4.37748 11.1908 4.34298C11.4952 4.30848 11.8031 4.36072 12.0791 4.49367Z" fill="black"/>
<path d="M21.6665 32.3202C20.5186 32.1276 19.4021 31.7807 18.3472 31.2889C18.3927 30.4092 18.4165 29.5469 18.4165 28.7192C18.4165 27.8395 18.3905 26.9989 18.3342 26.1972C19.294 26.988 20.4272 27.5752 21.6665 27.8937V22.75C21.6665 21.8881 22.0089 21.0614 22.6184 20.4519C23.2279 19.8424 24.0546 19.5 24.9165 19.5H32.4998C32.5001 17.8468 32.0274 16.2281 31.1377 14.8348C30.248 13.4414 28.9784 12.3316 27.4786 11.6362C25.9788 10.9409 24.3113 10.689 22.673 10.9103C21.0348 11.1316 19.4939 11.8168 18.2324 12.8852C17.8575 11.1215 16.9865 9.83019 16.4297 9.00469L16.343 8.87469C18.2897 7.50242 20.5759 6.69131 22.9522 6.52989C25.3284 6.36848 27.7033 6.86297 29.8177 7.95938C31.932 9.05579 33.7045 10.712 34.9417 12.7472C36.1789 14.7824 36.8332 17.1183 36.8332 19.5H44.4165C45.2785 19.5 46.1051 19.8424 46.7146 20.4519C47.3241 21.0614 47.6665 21.8881 47.6665 22.75V42.25C47.6665 43.112 47.3241 43.9386 46.7146 44.5481C46.1051 45.1576 45.2785 45.5 44.4165 45.5H24.9165C24.0546 45.5 23.2279 45.1576 22.6184 44.5481C22.0089 43.9386 21.6665 43.112 21.6665 42.25V32.3202ZM25.9998 32.3202V41.1667H43.3332V23.8334H36.0943C35.3198 26.019 33.9756 27.9582 32.2005 29.4502C30.4254 30.9423 28.284 31.9331 25.9977 32.3202H25.9998ZM31.3407 23.8334H25.9998V27.8937C27.1149 27.6049 28.1613 27.0972 29.0782 26.4001C29.9951 25.703 30.7642 24.8305 31.3407 23.8334Z" fill="black"/>
<path opacity="0.8" d="M21.6665 32.3202C20.5109 32.1815 19.4021 31.7807 18.3472 31.2889C18.3927 30.4092 18.4165 29.5469 18.4165 28.7192C18.4165 27.8395 18.3905 26.9989 18.3342 26.1972C19.294 26.988 21 28 22.5 28C29 29 32.4998 23.5 32.4998 19.5C32.5001 17.8468 32.0274 16.2281 31.1377 14.8348C30.248 13.4414 28.9784 12.3316 27.4786 11.6362C25.9788 10.9409 24.3113 10.689 22.673 10.9103C21.0348 11.1316 19.4939 11.8168 18.2324 12.8852C17.8575 11.1215 16.9865 9.83019 16.4297 9.00469L16.343 8.87469C18.2897 7.50242 20.5759 6.69131 22.9522 6.52989C25.3284 6.36848 27.7033 6.86297 29.8177 7.95938C31.932 9.05579 33.7045 10.712 34.9417 12.7472C36.1789 14.7824 36.8332 17.1183 36.8332 19.5C37 26 31.5 33.5 21.6665 32.3202Z" fill="#FF2E63"/>
</svg>
