<svg  viewBox="0 0 52 52" fill="none" xmlns="http://www.w3.org/2000/svg">
<path d="M15.1667 10.8334H36.8334V15.1667H41.1667V6.50002C41.1667 4.11669 39.2167 2.18835 36.8334 2.18835L15.1667 2.16669C12.7834 2.16669 10.8334 4.11669 10.8334 6.50002V15.1667H15.1667V10.8334ZM33.3884 35.945L43.3334 26L33.3884 16.055L30.3334 19.1317L37.2017 26L30.3334 32.8684L33.3884 35.945ZM21.6667 32.8684L14.7984 26L21.6667 19.1317L18.6117 16.055L8.66675 26L18.6117 35.945L21.6667 32.8684ZM36.8334 41.1667H15.1667V36.8334H10.8334V45.5C10.8334 47.8833 12.7834 49.8334 15.1667 49.8334H36.8334C39.2167 49.8334 41.1667 47.8833 41.1667 45.5V36.8334H36.8334V41.1667Z" fill="black"/>
<path d="M33.3884 35.945L43.3334 26L33.3884 16.055L30.3334 19.1317L37.2017 26L30.3334 32.8683L33.3884 35.945ZM21.6667 32.8683L14.7984 26L21.6667 19.1317L18.6117 16.055L8.66675 26L18.6117 35.945L21.6667 32.8683Z" fill="#FF2E63"/>
</svg>
