<svg width="16" height="16" viewBox="0 0 16 16" fill="none" xmlns="http://www.w3.org/2000/svg">
<path fill-rule="evenodd" clip-rule="evenodd" d="M15 7.99999C15 8.1326 14.9473 8.25978 14.8536 8.35355C14.7598 8.44732 14.6326 8.49999 14.5 8.49999L2.707 8.49999L5.854 11.646C5.94789 11.7399 6.00063 11.8672 6.00063 12C6.00063 12.1328 5.94789 12.2601 5.854 12.354C5.76011 12.4479 5.63278 12.5006 5.5 12.5006C5.36722 12.5006 5.23989 12.4479 5.146 12.354L1.146 8.35399C1.09944 8.30755 1.06249 8.25237 1.03729 8.19163C1.01208 8.13088 0.999107 8.06576 0.999107 7.99999C0.999107 7.93423 1.01208 7.8691 1.03729 7.80836C1.06249 7.74761 1.09944 7.69244 1.146 7.64599L5.146 3.64599C5.23989 3.55211 5.36723 3.49936 5.5 3.49936C5.63278 3.49936 5.76011 3.55211 5.854 3.64599C5.94789 3.73988 6.00063 3.86722 6.00063 3.99999C6.00063 4.13277 5.94789 4.26011 5.854 4.35399L2.707 7.49999L14.5 7.49999C14.6326 7.49999 14.7598 7.55267 14.8536 7.64644C14.9473 7.74021 15 7.86739 15 7.99999V7.99999Z" fill="black"/>
<path fill-rule="evenodd" clip-rule="evenodd" d="M15 7.99999C15 8.1326 14.9473 8.25978 14.8536 8.35355C14.7598 8.44732 14.6326 8.49999 14.5 8.49999L2.707 8.49999L5.854 11.646C5.94789 11.7399 6.00063 11.8672 6.00063 12C6.00063 12.1328 5.94789 12.2601 5.854 12.354C5.76011 12.4479 5.63278 12.5006 5.5 12.5006C5.36722 12.5006 5.23989 12.4479 5.146 12.354L1.146 8.35399C1.09944 8.30755 1.06249 8.25237 1.03729 8.19163C1.01208 8.13088 0.999107 8.06576 0.999107 7.99999C0.999107 7.93423 1.01208 7.8691 1.03729 7.80836C1.06249 7.74761 1.09944 7.69244 1.146 7.64599L5.146 3.64599C5.23989 3.55211 5.36723 3.49936 5.5 3.49936C5.63278 3.49936 5.76011 3.55211 5.854 3.64599C5.94789 3.73988 6.00063 3.86722 6.00063 3.99999C6.00063 4.13277 5.94789 4.26011 5.854 4.35399L2.707 7.49999L14.5 7.49999C14.6326 7.49999 14.7598 7.55267 14.8536 7.64644C14.9473 7.74021 15 7.86739 15 7.99999V7.99999Z" fill="black"/>
</svg>
