<svg  viewBox="0 0 24 24" fill="none" xmlns="http://www.w3.org/2000/svg">
<path d="M2 8.39995C1.99988 7.68232 2.1428 6.97186 2.4204 6.3101C2.69801 5.64833 3.10474 5.04854 3.61681 4.54578C4.12889 4.04301 4.73604 3.64736 5.40279 3.38194C6.06953 3.11652 6.78249 2.98666 7.5 2.99995C8.34896 2.99544 9.18919 3.17142 9.96499 3.51622C10.7408 3.86102 11.4345 4.36677 12 4.99995C12.5655 4.36677 13.2592 3.86102 14.035 3.51622C14.8108 3.17142 15.651 2.99544 16.5 2.99995C17.2175 2.98666 17.9305 3.11652 18.5972 3.38194C19.264 3.64736 19.8711 4.04301 20.3832 4.54578C20.8953 5.04854 21.302 5.64833 21.5796 6.3101C21.8572 6.97186 22.0001 7.68232 22 8.39995C22 13.7559 15.621 17.8 12 21C8.387 17.773 2 13.7599 2 8.39995Z" fill="#DC3545"/>
</svg>
