<svg  viewBox="0 0 138 26" fill="none" xmlns="http://www.w3.org/2000/svg">
<path d="M9.692 25.33C7.822 25.33 6.095 25.099 4.511 24.637C2.949 24.153 1.607 23.493 0.485 22.657L1.805 19.324C2.553 19.852 3.334 20.303 4.148 20.677C4.962 21.029 5.831 21.304 6.755 21.502C7.679 21.678 8.658 21.766 9.692 21.766C11.43 21.766 12.684 21.48 13.454 20.908C14.224 20.336 14.609 19.588 14.609 18.664C14.609 17.85 14.345 17.234 13.817 16.816C13.289 16.376 12.343 16.013 10.979 15.727L7.25 14.968C5.116 14.528 3.521 13.791 2.465 12.757C1.409 11.723 0.881 10.337 0.881 8.599C0.881 7.147 1.266 5.882 2.036 4.804C2.806 3.726 3.884 2.89 5.27 2.296C6.656 1.702 8.273 1.405 10.121 1.405C11.771 1.405 13.3 1.647 14.708 2.131C16.116 2.593 17.293 3.264 18.239 4.144L16.919 7.312C15.973 6.52 14.939 5.937 13.817 5.563C12.695 5.167 11.441 4.969 10.055 4.969C8.493 4.969 7.272 5.277 6.392 5.893C5.534 6.487 5.105 7.312 5.105 8.368C5.105 9.182 5.369 9.831 5.897 10.315C6.447 10.799 7.371 11.173 8.669 11.437L12.365 12.163C14.565 12.603 16.193 13.329 17.249 14.341C18.305 15.331 18.833 16.673 18.833 18.367C18.833 19.753 18.459 20.974 17.711 22.03C16.963 23.064 15.907 23.878 14.543 24.472C13.179 25.044 11.562 25.33 9.692 25.33ZM30.5655 25.33C28.6955 25.33 27.0895 24.989 25.7475 24.307C24.4275 23.603 23.4045 22.602 22.6785 21.304C21.9745 20.006 21.6225 18.466 21.6225 16.684C21.6225 14.946 21.9635 13.428 22.6455 12.13C23.3275 10.832 24.2735 9.82 25.4835 9.094C26.7155 8.368 28.1455 8.005 29.7735 8.005C31.3795 8.005 32.7215 8.346 33.7995 9.028C34.8775 9.71 35.6915 10.667 36.2415 11.899C36.8135 13.131 37.0995 14.572 37.0995 16.222V17.311H24.9555V15.133H34.1625L33.6015 15.595C33.6015 14.055 33.2715 12.878 32.6115 12.064C31.9735 11.25 31.0385 10.843 29.8065 10.843C28.8825 10.843 28.1015 11.063 27.4635 11.503C26.8475 11.943 26.3745 12.57 26.0445 13.384C25.7145 14.198 25.5495 15.188 25.5495 16.354V16.783C25.5495 18.587 25.9895 19.94 26.8695 20.842C27.7715 21.722 29.0365 22.162 30.6645 22.162C31.6105 22.162 32.4905 22.041 33.3045 21.799C34.1405 21.535 34.9325 21.117 35.6805 20.545L36.9015 23.317C36.1095 23.955 35.1635 24.45 34.0635 24.802C32.9635 25.154 31.7975 25.33 30.5655 25.33ZM40.5926 25V0.711998H44.7176V25H40.5926ZM49.1971 25V8.335H53.3221V25H49.1971ZM48.9661 5.2V1.174H53.5531V5.2H48.9661ZM57.8016 25V0.711998H61.9266V15.43H61.9926L68.7576 8.335H73.7406L65.3256 17.146L65.3586 15.496L74.3346 25H69.2196L61.9926 17.542H61.9266V25H57.8016ZM76.0096 25V0.711998H80.1346V11.668H79.6726C80.1786 10.48 80.9596 9.578 82.0156 8.962C83.0716 8.324 84.2816 8.005 85.6456 8.005C87.6256 8.005 89.0996 8.566 90.0676 9.688C91.0356 10.788 91.5196 12.471 91.5196 14.737V25H87.3946V14.935C87.3946 13.637 87.1416 12.702 86.6356 12.13C86.1516 11.536 85.3706 11.239 84.2926 11.239C83.0386 11.239 82.0266 11.635 81.2566 12.427C80.5086 13.197 80.1346 14.231 80.1346 15.529V25H76.0096ZM103.417 25.33C101.701 25.33 100.216 24.978 98.9624 24.274C97.7084 23.57 96.7294 22.569 96.0254 21.271C95.3434 19.973 95.0024 18.433 95.0024 16.651C95.0024 14.869 95.3434 13.34 96.0254 12.064C96.7294 10.766 97.7084 9.765 98.9624 9.061C100.216 8.357 101.701 8.005 103.417 8.005C105.133 8.005 106.618 8.357 107.872 9.061C109.148 9.765 110.127 10.766 110.809 12.064C111.513 13.34 111.865 14.869 111.865 16.651C111.865 18.433 111.513 19.973 110.809 21.271C110.127 22.569 109.148 23.57 107.872 24.274C106.618 24.978 105.133 25.33 103.417 25.33ZM103.417 22.162C104.715 22.162 105.749 21.711 106.519 20.809C107.289 19.885 107.674 18.499 107.674 16.651C107.674 14.803 107.289 13.428 106.519 12.526C105.749 11.624 104.715 11.173 103.417 11.173C102.119 11.173 101.085 11.624 100.315 12.526C99.5454 13.428 99.1604 14.803 99.1604 16.651C99.1604 18.499 99.5454 19.885 100.315 20.809C101.085 21.711 102.119 22.162 103.417 22.162ZM119.984 25L112.79 8.335H117.179L122.393 21.37H121.37L126.716 8.335H130.841L123.614 25H119.984Z" fill="black"/>
<path d="M132.589 25V20.413H137.209V25H132.589Z" fill="#FF2E63"/>
</svg>
